<?xml version="1.0" encoding="UTF-8"?>
<svg id="Capa_1" data-name="Capa 1" xmlns="http://www.w3.org/2000/svg" viewBox="0 0 1279.31 250.81">
  <defs>
    <style>
      .cls-1 {
        fill: #35bbcf;
      }

      .cls-2 {
        fill: #f2f2f2;
      }
    </style>
  </defs>
  <g id="demas_letras">
    <path class="cls-2" d="M326.51,122.03c.14-15.82,.04-31.65,.5-47.46,.4-13.82,4.25-26.5,13.56-36.94,6.96-7.81,15.72-11.44,25.76-11.55,19.14-.19,38.28-.09,57.42-.06,21.99,.04,35.22,12.84,43.73,32.39,1.37,3.15,2.35,6.5,3.51,9.75,4.31,14.03,4.11,28.5,4.09,42.99-.03,18.43-3.12,35.96-13,51.69-9.11,10.88-19.68,19.18-34.11,20.64-9.95-.04-19.91-.08-29.86-.12-10.07,.07-20.14,.08-30.2,.25-2.6,.04-3.67-.65-3.62-3.62,.17-10.15,.21-20.31,0-30.46-.07-3.27,1.08-3.79,3.86-3.77,16.72,.13,33.46-.47,50.14,.24,18.23,.78,27.97-10.52,29.3-26.42,1.09-13.04,1.88-26.26-2.6-39-.94-2.67-2.08-5.21-3.69-7.52-.25-.29-.5-.58-.74-.87-.28-.39-.57-.79-.85-1.18-.34-.33-.67-.67-1.01-1-.32-.32-.65-.65-.97-.97-.35-.26-.7-.53-1.05-.8,0,0-.15-.1-.15-.1l-.73-.46c-.3-.23-.61-.45-.91-.68-1.32-1.4-2.98-1.97-4.81-2.12,0,0,.03,.02,.02,.02-2.25-1.23-4.7-.87-7.08-.87-18.79-.02-37.58,.04-56.36,.01-8.12-.01-10.92,2.38-12.51,11-.14,2.65-.4,5.31-.4,7.96-.03,48.64-.12,97.28,.12,145.92,.03,5.26-1.44,6.42-6.11,6.07-5.6-.43-11.26-.32-16.88-.01-3.49,.19-4.24-1.05-4.22-4.48,.12-33.15,.09-66.3,.02-99.45,0-1.68,.93-3.65-.8-5.09,.7-1.22,1.19-2.49,.64-3.93Z"/>
    <path class="cls-2" d="M274.52,25.81h36c-4.77,7.88-9.06,15.01-13.39,22.1-16.12,26.41-32.2,52.85-48.44,79.18-1.83,2.96-1.6,4.96,.18,7.82,13.48,21.64,26.77,43.41,40.13,65.14,.64,1.02,1.28,2.04,1.92,3.06,5.6,9.41,11.06,18.92,16.88,28.18,2.23,3.55,.79,3.64-2.11,3.64-9.74,0-19.48,.12-29.23,.2-.95-.08-1.9-.16-2.85-.24-12.08-19.72-24.15-39.44-36.24-59.15-2.83-4.62-5.69-9.22-9.01-14.6-3.12,5.04-6.03,9.66-8.88,14.33-11.28,18.52-22.61,37.01-33.73,55.64-1.72,2.88-3.59,4.36-6.79,4.01h-32.44c9.92-16.27,19.31-31.67,28.7-47.07,11.14-18.27,22.22-36.57,33.48-54.76,1.37-2.21,.67-3.6-.37-5.31-16.34-26.87-32.67-53.75-48.99-80.63-4.18-6.88-8.31-13.8-12.81-21.29,12.02,0,23.66,.03,35.3-.03,2.26-.01,2.34,2.05,3.1,3.28,13.92,22.77,27.75,45.6,41.64,68.39,.47,.78,.83,1.86,2.28,2.04,13.57-22.34,27.2-44.8,40.87-67.23,1.43-2.35,2.47-5.03,4.82-6.69Z"/>
    <path class="cls-2" d="M29.48,233.72C9.64,225.95,1.07,209.55,.62,189.12-.29,147.83,.14,106.5,.05,65.19c-.02-7.49-.2-15.01,.29-22.48,.65-9.84,5.68-16.97,17.21-16.85,37.47,.39,74.95,.2,112.42,.04,3.81-.02,4.86,1.02,4.74,4.94-.29,9.65-.28,19.33-.03,28.98,.09,3.56-.91,4.36-4.27,4.35-32.65-.15-65.3-.02-97.95-.19-4.15-.02-5.76,.78-5.73,5.51,.23,37.14,.19,74.29,.3,111.44,.01,4.28,.08,8.66,3.08,12.18,2.15,4.41,6.2,3.86,9.89,3.87,29.92,.06,59.83,.11,89.75-.07,4.05-.03,5.08,1.12,4.93,5.24-.33,9.15-.31,18.33,0,27.48,.14,4.05-.76,5.36-4.91,5.31-20.58-.23-41.17,.02-61.76-.13-12.84-.09-25.73,.91-38.52-1.09Z"/>
    <path class="cls-2" d="M1144.33,115.04c0-22.66,.02-45.31-.02-67.97,0-4.58,.78-8.92,2.73-13.04,2.43-5.12,6.4-7.95,11.84-7.96,37.96-.08,75.92-.08,113.88-.04,4.05,0,6.79,1.2,6.53,6.59-.43,8.97-.34,17.99-.05,26.98,.13,3.94-1.17,4.58-4.65,4.57-32.81-.14-65.62-.03-98.44-.16-3.55-.01-4.87,.61-4.85,4.76,.18,36.82,.09,73.63,.1,110.45,0,2.16-.16,4.38,.21,6.48,1.39,7.86,3.96,11.38,12.8,11.34,29.92-.1,59.83,.01,89.75-.16,3.84-.02,5.26,.72,5.09,5.09-.38,9.65-.27,19.32-.08,28.98,.07,3.34-.96,4.03-4.07,4.02-30.4-.14-60.8-.01-91.2-.15-14.48-.07-24.99-7.27-32.02-20.21-5.5-10.13-7.5-21.14-7.53-32.6-.05-22.32-.02-44.65-.02-66.97h-.03Z"/>
    <path class="cls-2" d="M1008.51,150.95c-5.55-16.22-11.05-32.46-16.68-48.66-6.54-18.81-13.19-37.58-19.79-56.37-1.7-6.76-5.14-12.93-6.3-19.88,8.67,0,17.34,.13,26-.1,2.96-.08,4.12,1.03,5.07,3.8,9.18,26.79,18.51,53.54,27.81,80.29,.38,1.08,.9,2.11,1.36,3.16,6.99,20.64,13.98,41.28,21.45,63.36,4.01-11.46,7.55-21.54,11.06-31.62,13.22-37.94,26.49-75.87,39.58-113.86,1.31-3.81,2.9-5.4,7.04-5.19,8.01,.42,16.06,.12,24.8,.12-3.49,10.01-6.84,19.57-10.17,29.14-15.36,44.2-30.7,88.42-46.08,132.61-4.29,12.33-8.69,24.62-13.02,36.94-2.29,6.52-5.34,12.82-12.94,12.85-7.55,.03-10.85-6.08-13.14-12.64-7.87-22.61-15.72-45.23-23.6-67.84-.48-1.39-1.15-2.7-1.73-4.05,.02-.79-.01-1.56-.73-2.07Z"/>
    <path class="cls-2" d="M817.23,234.01c-.12-8-.23-16-.35-24,.06-27.82,.14-55.65,.17-83.47,.01-9.83-.09-19.66-.14-29.48,0-.35,0-.7,0-1.04,.16-.32,.15-.63-.05-.92,0-2.35,.01-4.71,.02-7.06,.05-6.66-.09-13.32,.22-19.97,.17-3.44-1.06-4.04-4.06-4.01-16.88,.14-33.76-.05-50.64,.15-3.72,.04-4.87-.88-4.84-4.9,.08-9.97,.65-19.96-.31-29.91-.41-4.24,2.33-3.4,4.6-3.4,32.31,0,64.63,0,96.94,0,13.18,0,26.37,.22,39.54-.09,4.18-.1,5.01,1.3,4.9,5.27-.27,9.48-.32,18.99,.01,28.47,.14,3.95-1.14,4.56-4.56,4.53-16.07-.18-32.15-.08-48.23-.08q-6.43,0-6.44,6.45c.02,53.28,.05,106.57-.03,159.85,0,1.44,1.83,4.34-1.82,4.42-3.19-1.22-6.38-1.16-9.57-.02-4.87,0-9.74,0-14.61,0-.26-.25-.51-.51-.77-.76Z"/>
    <path class="cls-2" d="M950.21,130.54c0,33.16-.07,66.32,.09,99.48,.02,3.97-1,5.18-4.82,4.97-5.94-.33-11.91-.33-17.85,0-3.67,.2-4.58-1.06-4.56-4.74,.14-28.33,.07-56.66,.08-84.99,.01-38.16,.09-76.32-.02-114.48-.01-3.8,.79-5.14,4.66-4.88,5.77,.38,11.59,.36,17.36,.02,3.93-.23,5.14,.85,5.12,5.14-.18,33.16-.1,66.32-.1,99.48h.05Z"/>
    <path class="cls-2" d="M80.03,149.66c-12.86,0-25.72-.09-38.58,.07-2.92,.04-3.87-.73-3.81-3.86,.19-10.32,.14-20.65,.03-30.97-.03-2.6,.35-3.8,3.35-3.78,26.04,.13,52.09,.11,78.13,0,2.92-.01,3.4,1.14,3.38,3.77-.09,10.32-.12,20.65,.09,30.97,.07,3.32-1.28,3.8-4.01,3.77-12.86-.11-25.72-.05-38.58-.05,0,.03,0,.05,0,.08Z"/>
    <path class="cls-2" d="M1224.45,111.19c12.86,0,25.71,.12,38.56-.08,3.16-.05,4.09,.79,4.03,4.07-.18,9.98-.14,19.97,.01,29.96,.05,3.22-.56,4.58-4.17,4.56-25.71-.15-51.42-.08-77.13,.05-2.95,.02-3.85-.86-3.79-3.96,.18-10.15,.24-20.31-.03-30.45-.1-3.78,1.32-4.27,4.43-4.23,12.69,.15,25.39,.06,38.08,.06v.02Z"/>
  </g>
  <path class="cls-1" d="M619.45,216.92c-23.65-1.54-46.1-11.17-63.26-32.31-3.85-4.74-3.81-10.33-.11-13.81,4.37-4.11,9.48-3.73,13.93,1.39,13.3,15.26,29.52,24.01,49.58,25.1,22.14,1.2,40.48-6.84,55.51-23.42,2.22-2.44,4.25-5.13,7.63-5.69,4.23-.7,7.55,.88,9.67,4.89,2.13,4.03,1.38,7.71-1.33,11.06-8.06,9.94-17.81,17.79-29.03,23.43-12.59,6.32-26.1,9.08-42.59,9.35Z"/>
  <path class="cls-1" d="M622.94,97.78c15.1,.34,27.24,12.83,27.13,27.9-.12,15.52-12.7,28.48-27.45,28.27-15.11-.22-27.24-13.12-26.89-28.6,.35-15.71,12.4-27.9,27.22-27.57Z"/>
  <path class="cls-1" d="M662.61,6.94c4.81,2.15,9.61,4.3,14.42,6.45,.55,.69,1.24,.84,2.03,.52,8.25,5.72,16.86,10.93,24.15,18.03,2.1,2.05,4.29,4.03,6.14,6.31,3.2,3.96,3.1,8.87,.04,12.71-3.02,3.77-7.87,4.75-12.14,2.28-1.38-.8-2.61-1.92-3.8-3.02-33.81-31.37-71.74-37.58-113.57-20-4.79,2.01-9,5.12-13.45,7.77-5.65,3.37-11.24,2.11-14.19-3.04-2.88-5.01-1.42-10.44,3.89-14.14,11.97-8.34,25.16-13.78,39.08-17.46,.59-.15,1.18-.29,1.77-.44,7.25-1.12,14.47-2.43,21.82-2.8,15.04-.76,29.53,2.32,43.8,6.82Z"/>
  <path class="cls-1" d="M739.67,159.7c-6.76,22.95-18.11,42.97-35.47,59.06-4.39,4.07-9.19,7.68-13.8,11.5-12.93,8.31-26.62,14.76-41.52,18.24-.58,.19-1.15,.38-1.73,.56-4-.03-7.72-.8-10.21-4.46-4.6-6.76-.97-14.68,7.78-16.53,13.68-2.89,26.17-8.61,37.43-17.02,23.79-17.76,37.17-42.07,41.28-71.98,2.79-20.34-.73-39.68-8.82-58.28-1.29-2.97-3.26-5.91-2.53-9.4,.93-4.42,3.56-7.39,7.93-8.4,5.01-1.16,8.44,1.27,10.72,5.59,5.25,9.97,8.77,20.61,11.08,31.72,2.46,11.84,1.96,23.82,1.93,35.79-.73,5.32-1.47,10.64-2.2,15.95,0,0,0,.32,0,.32-.76,.75-.78,1.68-.64,2.66-1.33,1.3-.99,3.06-1.22,4.66Z"/>
  <path class="cls-1" d="M622.39,184.09c-27.68-.07-51.46-20.7-56.08-48.62-4.7-28.43,11.23-56.6,37.47-66.22,.91-.33,1.84-.59,2.77-.85,5.84-1.64,9.84,.16,11.36,5.08,1.51,4.87-.69,9.35-6.16,11.17-8.35,2.79-15.44,7.35-20.91,14.47-11.27,14.67-11.57,36.41-.75,51.02,11.3,15.25,30.59,20.57,47.98,13.24,16.44-6.93,27.19-25.73,24.33-43.92-2.43-15.44-10.41-26.96-24.78-33.05-1.34-.57-2.73-.99-4.05-1.6-4.86-2.26-6.9-6.66-5.3-11.3,1.54-4.45,5.98-6.73,11.04-5.11,8.21,2.63,15.8,6.59,22.02,12.88,17.2,17.4,23.07,38.28,15.57,61.96-7.47,23.62-23.87,37.17-47.79,40.66-.64,.09-1.28,.16-1.92,.17-1.61,.02-3.22,0-4.82,0Z"/>
  <path class="cls-1" d="M508.9,82.09c.19-.62,.39-1.24,.58-1.86,3.79-8.57,7.79-17.03,12.76-24.95,.84-.69,1.42-1.55,1.6-2.67,2.84-2.78,4.81-6.59,9.52-6.93,7.37-.53,12.64,6.12,10.15,13.33-.53,1.53-1.42,2.98-2.34,4.31-28.76,41.55-26.44,95.43,6.21,133.3,16.21,18.8,36.88,29.49,60.89,33.37,3.78,.61,7.85,.91,10.13,4.78,2.03,3.45,2.62,7.14,.44,10.86-2.34,3.99-5.89,5.43-10.21,5.13-6.6-.46-12.88-2.64-19.33-3.96-8.06-3.26-16.12-6.52-24.18-9.77-11.84-7.54-22.65-16.43-32.6-26.46,0,0-.07,0-.07,0,0,0-.08-.42-.08-.42-10.73-12.87-18.93-27.28-24.58-43.25-4.2-14.24-6.77-28.71-6.4-43.69,.26-10.53,2.21-20.79,4.17-31.06,1.21-2.74,2.22-5.54,2.67-8.54,.22-.51,.45-1.01,.67-1.51Z"/>
  <path class="cls-1" d="M622.85,33.93c41.12-1.01,77.74,29.18,87.04,72.33,2.51,11.65,2.58,23.4,.84,35.16-.99,6.73-5.76,11.31-10.74,10.52-6.21-.99-9.14-6.01-7.84-13.44,7.88-45.12-25.46-85.59-69.82-85.55-37.19,.04-68.63,32.01-68.83,71.67-.02,3.16,.19,6.33,.16,9.49-.06,5.34-3,8.93-7.83,9.75-4.25,.72-8.45-2.11-9.8-7.02-1.8-6.52-1.32-13.28-.72-19.85,1.74-19.02,8.57-36,20.37-50.76,14.76-18.45,40.58-33.35,67.16-32.29Z"/>
</svg>